<svg xmlns="http://www.w3.org/2000/svg" preserveAspectRatio="xMidYMid meet" width="100%" height="100%"  viewBox="0 0 24 24" id="man-fashion"><path fill="#231f20" d="M5 12a1 1 0 0 1-.6-.2l-4-3a1 1 0 0 1-.27-1.3L3 2.53A5 5 0 0 1 7.33 0H9a1 1 0 0 1 1 1 2 2 0 0 0 4 0 1 1 0 0 1 2 0 4 4 0 0 1-7.87 1h-.8a3 3 0 0 0-2.61 1.52L2.31 7.76l2.44 1.81 1.42-2.12a1 1 0 1 1 1.66 1.1l-2 3a1 1 0 0 1-.66.44Z"></path><path fill="#231f20" d="M19 12h-.17a1 1 0 0 1-.66-.44l-2-3a1 1 0 0 1 1.66-1.1l1.42 2.12 2.44-1.81-2.41-4.25A3 3 0 0 0 16.67 2h-.8A4 4 0 0 1 8 1a1 1 0 0 1 2 0 2 2 0 0 0 4 0 1 1 0 0 1 1-1h1.67A5 5 0 0 1 21 2.53l2.85 5a1 1 0 0 1-.27 1.3l-4 3A1 1 0 0 1 19 12Z"></path><path fill="#231f20" d="M17 15H7a1 1 0 0 1-1-1V8a1 1 0 0 1 2 0v5h8V8a1 1 0 0 1 2 0v6a1 1 0 0 1-1 1Z"></path><path fill="#231f20" d="M19 24h-5a1 1 0 0 1-.93-.63L12 20.69l-1.07 2.68A1 1 0 0 1 10 24H5a1 1 0 0 1-.78-.37 1 1 0 0 1-.2-.85l2-9a1 1 0 0 1 2 .44L6.25 22h3.07l1.75-4.37a1 1 0 0 1 1.86 0L14.68 22h3.07L16 14.22a1 1 0 1 1 2-.44l2 9a1 1 0 0 1-.2.85 1 1 0 0 1-.8.37Z"></path></svg>