<svg xmlns="http://www.w3.org/2000/svg" preserveAspectRatio="xMidYMid meet" width="100%" height="100%" viewBox="0 0 85.33 96.68" id="furniture"><path stroke="#000" stroke-width="4" d="M85.33 39.92a1.5 1.5 0 0 0-1.5-1.5H77.1V7.23A7.22 7.22 0 0 0 69.9 0H15.43a7.22 7.22 0 0 0-7.2 7.23v31.56H1.5a1.5 1.5 0 0 0-1.5 1.5V84.2a1.5 1.5 0 0 0 1.5 1.5h6.73v9.48a1.5 1.5 0 0 0 1.5 1.5h11a1.5 1.5 0 0 0 1.5-1.5V85.7h40.89v9.48a1.5 1.5 0 0 0 1.5 1.5h11a1.5 1.5 0 0 0 1.5-1.5V85.7h6.73a1.5 1.5 0 0 0 1.5-1.5v-22a.92.92 0 0 1 0-.37Zm-3 20.46H68.86v-19h13.47ZM11.23 7.23A4.22 4.22 0 0 1 15.43 3H69.9a4.22 4.22 0 0 1 4.2 4.23v31.19h-6.74a1.5 1.5 0 0 0-1.5 1.5v20.82H19.47V40.29a1.5 1.5 0 0 0-1.5-1.5h-6.74ZM3 41.79h13.47v19H3Zm16.21 51.89h-8v-8h8Zm54.89 0h-8v-8h8Zm8.23-11H3v-19h79.33Z" data-name="Layer 2"></path></svg>